# xmcd
#
# Track frame offsets: 
#        200
#        20897
#        48867
#        75785
#        94922
#        114645
#        136310
#        152895
#
# Disc length: 2423 seconds
#
# Revision: 9
# Processed by: cddbd v1.5.2PL0 Copyright (c) Steve Scherf et al.
# Submitted via: ExactAudioCopy v0.99pb5
#
DISCID=5d097508
DTITLE=Various Artist - Acid Jazz - Mo' Jazz
DYEAR=1992
DGENRE=Acid Jazz
TTITLE0=Mr. Tanaka - The Brand New Heavies
TTITLE1=Astralisation - Snowboy
TTITLE2=Sweet Ohm - Ohm
TTITLE3=Natural Feeling - The Whole Thing
TTITLE4=Super Strut - The Apostles
TTITLE5=The Latin One - The New Jersey Kings
TTITLE6=Congalegre - Soul Station
TTITLE7=Drifting - The Ulf Sandberg Quartet
EXTD=
EXTT0=The Brand New Heavies\n
EXTT1=Snowboy\n
EXTT2=Ohm\n
EXTT3=The Whole Thing\n
EXTT4=The Apostles\n
EXTT5=The New Jersey Kings\n
EXTT6=Soul Station\n
EXTT7=The Ulf Sandberg Quartet\n
PLAYORDER=
